<svg width="193" height="39" viewBox="0 0 193 39" fill="none" xmlns="http://www.w3.org/2000/svg">
<path d="M183.524 24.4475C183.871 24.7719 185.535 26.1489 188.175 26.1489C190.989 26.1489 193 24.3177 193 22.0755C193 19.444 190.859 18.2617 188.349 17.2451C186.555 16.5097 185.6 15.76 185.6 14.5271C185.6 13.7269 186.229 12.5877 188.045 12.5877C189.304 12.5877 190.815 13.5827 190.967 13.6692C191.271 13.8638 191.553 13.7341 191.727 13.4529C191.901 13.1933 192.096 12.8905 192.269 12.631C192.486 12.3066 192.313 12.0038 192.139 11.8956C191.922 11.7442 190.302 10.6267 188.139 10.6267C184.695 10.6267 183.401 12.9338 183.401 14.6136C183.401 17.1154 185.129 18.2545 187.336 19.1845C189.477 20.0713 190.606 20.886 190.606 22.1837C190.606 23.2867 189.651 24.1879 188.161 24.1879C186.497 24.1879 184.826 22.8109 184.695 22.7028C184.457 22.5081 184.153 22.5946 183.958 22.8758C183.762 23.157 183.589 23.4814 183.393 23.7626C183.176 24.1231 183.328 24.2745 183.524 24.4475ZM176.687 25.5289C176.687 25.7452 176.883 25.9399 177.1 25.9399H178.525C178.742 25.9399 178.937 25.7452 178.937 25.5289V11.254C178.937 11.0377 178.742 10.843 178.525 10.843H177.1C176.883 10.843 176.687 11.0377 176.687 11.254V25.5289ZM158.487 25.5289C158.487 25.7452 158.682 25.9399 158.899 25.9399H160.324C160.563 25.9399 160.736 25.7452 160.736 25.5289V19.2999H168.658V25.5289C168.658 25.7452 168.831 25.9399 169.07 25.9399H170.495C170.712 25.9399 170.907 25.7452 170.907 25.5289V11.254C170.907 11.0377 170.712 10.843 170.495 10.843H169.07C168.831 10.843 168.658 11.0377 168.658 11.254V17.274H160.736V11.254C160.736 11.0377 160.563 10.843 160.324 10.843H158.899C158.682 10.843 158.487 11.0377 158.487 11.254V25.5289ZM148.301 25.5986C148.301 25.8148 148.496 26.0095 148.713 26.0095H150.138C150.355 26.0095 150.551 25.8148 150.551 25.5986V12.6887H154.081C154.32 12.6887 154.493 12.494 154.493 12.2777V11.0665C154.493 10.8502 154.32 10.6556 154.081 10.6556H144.778C144.539 10.6556 144.366 10.8502 144.366 11.0665V12.2777C144.366 12.494 144.539 12.6887 144.778 12.6887H148.308V25.5986H148.301ZM129.529 25.5289C129.529 25.7452 129.702 25.9399 129.941 25.9399H131.366C131.583 25.9399 131.778 25.7452 131.778 25.5289V18.651L136.907 11.4703C137.081 11.1891 136.907 10.843 136.56 10.843H134.94C134.788 10.843 134.658 10.9512 134.592 11.0377L130.679 16.5386L126.765 11.0377C126.7 10.9512 126.592 10.843 126.418 10.843H124.819C124.472 10.843 124.298 11.1891 124.472 11.4703L129.536 18.6726V25.5289H129.529ZM113.288 18.1752V12.9338H117.137C118.54 12.9338 119.777 14.0945 119.777 15.5004C119.777 16.9856 118.547 18.1752 117.137 18.1752H113.288ZM111.017 25.5289C111.017 25.7452 111.19 25.9399 111.429 25.9399H112.832C113.049 25.9399 113.245 25.7452 113.245 25.5289V20.028H116.515L119.394 25.7452C119.437 25.8317 119.567 25.9399 119.741 25.9399H121.426C121.795 25.9399 121.947 25.5938 121.795 25.3126L118.829 19.8334C120.71 19.0764 122.034 17.4398 122.034 15.4572C122.034 12.8905 119.915 10.843 117.318 10.843H111.429C111.19 10.843 111.017 11.0377 111.017 11.254V25.5289ZM98.0605 25.5289C98.0605 25.7452 98.2342 25.9399 98.4729 25.9399H106.177C106.416 25.9399 106.589 25.7452 106.589 25.5289V24.3393C106.589 24.1231 106.416 23.9284 106.177 23.9284H100.31V11.254C100.31 11.0377 100.115 10.843 99.898 10.843H98.4729C98.2342 10.843 98.0605 11.0377 98.0605 11.254V25.5289ZM83.6503 25.5289C83.6503 25.7452 83.8239 25.9399 84.0627 25.9399H92.7146C92.9533 25.9399 93.1269 25.7452 93.1269 25.5289V24.3393C93.1269 24.1231 92.9533 23.9284 92.7146 23.9284H85.8784V19.2926H91.6584C91.8754 19.2926 92.0708 19.1196 92.0708 18.8817V17.6777C92.0708 17.4614 91.8754 17.2668 91.6584 17.2668H85.8784V12.8689H92.7146C92.9533 12.8689 93.1269 12.6743 93.1269 12.458V11.254C93.1269 11.0377 92.9533 10.843 92.7146 10.843H84.0627C83.8239 10.843 83.6503 11.0377 83.6503 11.254V25.5289ZM65.3699 25.8533C65.4133 26.0264 65.5869 26.1562 65.7605 26.1562H66.1078C66.2597 26.1562 66.4333 26.048 66.4767 25.9182L70.2167 15.1976H70.3252L74.1303 25.9182C74.1737 26.048 74.3474 26.1562 74.4993 26.1562H74.8465C75.0201 26.1562 75.1937 26.0264 75.2371 25.8533L79.3244 11.3621C79.4112 11.0593 79.2376 10.843 78.9337 10.843H77.4869C77.3133 10.843 77.1397 10.9944 77.0963 11.1458L74.521 21.0446H74.4342L70.8678 10.8647C70.8244 10.7349 70.6725 10.6267 70.4988 10.6267H70.1082C69.9346 10.6267 69.7827 10.7349 69.7393 10.8647L66.2091 21.0446H66.1222L63.5108 11.1458C63.4674 10.9944 63.2937 10.843 63.1201 10.843H61.6733C61.3695 10.843 61.1959 11.0593 61.2827 11.3621L65.3699 25.8533ZM48.2614 25.5289C48.2614 25.7452 48.435 25.9399 48.6737 25.9399H57.3257C57.5644 25.9399 57.738 25.7452 57.738 25.5289V24.3393C57.738 24.1231 57.5644 23.9284 57.3257 23.9284H50.4895V19.2926H56.2695C56.4865 19.2926 56.6818 19.1196 56.6818 18.8817V17.6777C56.6818 17.4614 56.4865 17.2668 56.2695 17.2668H50.4895V12.8689H57.3257C57.5644 12.8689 57.738 12.6743 57.738 12.458V11.254C57.738 11.0377 57.5644 10.843 57.3257 10.843H48.6665C48.4278 10.843 48.2542 11.0377 48.2542 11.254V25.5289H48.2614ZM35.298 26.7041C35.6669 27.1583 36.7014 28.2758 38.5895 28.2758C41.1214 28.2758 43.024 26.5527 43.024 23.5535V11.0665C43.024 10.8502 42.8503 10.6556 42.6116 10.6556H41.1793C40.9405 10.6556 40.7669 10.8502 40.7669 11.0665V23.5751C40.7669 25.4712 39.6384 26.2931 38.5822 26.2931C37.7359 26.2931 37.1354 25.7308 36.8099 25.3631C36.6146 25.1468 36.4193 25.0603 36.1154 25.3198L35.3414 26.1634C35.2112 26.3148 35.1895 26.531 35.298 26.7041Z" fill="#111111"/>
<path d="M1 22.7615C1 27.0394 4.46796 30.5099 8.74841 30.5099C13.0264 30.5099 16.4968 27.0419 16.4968 22.7615V1H1" stroke="#111111" stroke-width="1.60446" stroke-miterlimit="10" stroke-linecap="round" stroke-linejoin="round"/>
<path d="M24.2429 30.4083C24.2429 34.6862 20.775 38.1567 16.4945 38.1567C12.2165 38.1567 8.74609 34.6887 8.74609 30.4083V8.64682H24.2429" stroke="#111111" stroke-width="1.60446" stroke-miterlimit="10" stroke-linecap="round" stroke-linejoin="round"/>
</svg>
