<svg width="84" height="66" viewBox="0 0 84 66" fill="none" xmlns="http://www.w3.org/2000/svg">
<path d="M78.9082 63.963C79.0929 64.1356 79.9783 64.8683 81.3833 64.8683C82.8806 64.8683 83.9507 63.8939 83.9507 62.7009C83.9507 61.3006 82.8113 60.6715 81.4756 60.1306C80.521 59.7393 80.0129 59.3403 80.0129 58.6843C80.0129 58.2585 80.3478 57.6524 81.314 57.6524C81.9837 57.6524 82.7882 58.1818 82.8691 58.2278C83.0307 58.3314 83.1809 58.2623 83.2732 58.1127C83.3656 57.9746 83.4696 57.8135 83.5619 57.6754C83.6774 57.5028 83.585 57.3416 83.4927 57.2841C83.3772 57.2035 82.5149 56.6089 81.364 56.6089C79.5318 56.6089 78.8428 57.8365 78.8428 58.7304C78.8428 60.0615 79.7627 60.6677 80.9367 61.1625C82.0761 61.6344 82.6766 62.0679 82.6766 62.7584C82.6766 63.3453 82.1685 63.8249 81.3756 63.8249C80.4902 63.8249 79.6011 63.0922 79.5318 63.0346C79.4047 62.931 79.2431 62.9771 79.1391 63.1267C79.0352 63.2763 78.9428 63.4489 78.8389 63.5985C78.7234 63.7903 78.8043 63.8709 78.9082 63.963ZM75.2706 64.5384C75.2706 64.6535 75.3746 64.7571 75.4901 64.7571H76.2484C76.3638 64.7571 76.4678 64.6535 76.4678 64.5384V56.9427C76.4678 56.8276 76.3638 56.724 76.2484 56.724H75.4901C75.3746 56.724 75.2706 56.8276 75.2706 56.9427V64.5384ZM65.5859 64.5384C65.5859 64.6535 65.6898 64.7571 65.8053 64.7571H66.5636C66.6907 64.7571 66.783 64.6535 66.783 64.5384V61.2239H70.998V64.5384C70.998 64.6535 71.0903 64.7571 71.2174 64.7571H71.9757C72.0912 64.7571 72.1951 64.6535 72.1951 64.5384V56.9427C72.1951 56.8276 72.0912 56.724 71.9757 56.724H71.2174C71.0903 56.724 70.998 56.8276 70.998 56.9427V60.1459H66.783V56.9427C66.783 56.8276 66.6907 56.724 66.5636 56.724H65.8053C65.6898 56.724 65.5859 56.8276 65.5859 56.9427V64.5384ZM60.1662 65.4016C60.1662 65.5166 60.2701 65.6202 60.3856 65.6202H61.1439C61.2594 65.6202 61.3633 65.5166 61.3633 65.4016V57.7061H63.2417C63.3687 57.7061 63.4611 57.6025 63.4611 57.4874V56.8429C63.4611 56.7278 63.3687 56.6243 63.2417 56.6243H58.2916C58.1646 56.6243 58.0722 56.7278 58.0722 56.8429V57.4874C58.0722 57.6025 58.1646 57.7061 58.2916 57.7061H60.17V65.4016H60.1662ZM50.1774 64.5384C50.1774 64.6535 50.2697 64.7571 50.3968 64.7571H51.1551C51.2705 64.7571 51.3745 64.6535 51.3745 64.5384V60.8786L54.1036 57.0578C54.196 56.9081 54.1036 56.724 53.9188 56.724H53.0566C52.9758 56.724 52.9065 56.7815 52.8718 56.8276L50.7894 59.7546L48.7069 56.8276C48.6723 56.7815 48.6146 56.724 48.5222 56.724H47.6715C47.4867 56.724 47.3943 56.9081 47.4867 57.0578L50.1812 60.8902V64.5384H50.1774ZM41.5358 60.6255V57.8365H43.5836C44.3303 57.8365 44.9886 58.4541 44.9886 59.2022C44.9886 59.9925 44.3342 60.6255 43.5836 60.6255H41.5358ZM40.3271 64.5384C40.3271 64.6535 40.4195 64.7571 40.5465 64.7571H41.2933C41.4088 64.7571 41.5127 64.6535 41.5127 64.5384V61.6114H43.2525L44.7845 64.6535C44.8076 64.6995 44.8769 64.7571 44.9693 64.7571H45.8662C46.0625 64.7571 46.1433 64.5729 46.0625 64.4233L44.4843 61.5078C45.4851 61.105 46.1895 60.2342 46.1895 59.1792C46.1895 57.8135 45.0617 56.724 43.6798 56.724H40.5465C40.4195 56.724 40.3271 56.8276 40.3271 56.9427V64.5384ZM33.4331 64.5384C33.4331 64.6535 33.5255 64.7571 33.6525 64.7571H37.752C37.879 64.7571 37.9714 64.6535 37.9714 64.5384V63.9054C37.9714 63.7903 37.879 63.6868 37.752 63.6868H34.6302V56.9427C34.6302 56.8276 34.5263 56.724 34.4108 56.724H33.6525C33.5255 56.724 33.4331 56.8276 33.4331 56.9427V64.5384ZM25.7654 64.5384C25.7654 64.6535 25.8578 64.7571 25.9848 64.7571H30.5885C30.7155 64.7571 30.8079 64.6535 30.8079 64.5384V63.9054C30.8079 63.7903 30.7155 63.6868 30.5885 63.6868H26.951V61.2201H30.0265C30.142 61.2201 30.2459 61.128 30.2459 61.0014V60.3608C30.2459 60.2457 30.142 60.1421 30.0265 60.1421H26.951V57.802H30.5885C30.7155 57.802 30.8079 57.6984 30.8079 57.5833V56.9427C30.8079 56.8276 30.7155 56.724 30.5885 56.724H25.9848C25.8578 56.724 25.7654 56.8276 25.7654 56.9427V64.5384ZM16.0383 64.711C16.0614 64.8031 16.1538 64.8722 16.2462 64.8722H16.4309C16.5118 64.8722 16.6042 64.8146 16.6273 64.7456L18.6173 59.0411H18.6751L20.6998 64.7456C20.7229 64.8146 20.8152 64.8722 20.8961 64.8722H21.0808C21.1732 64.8722 21.2656 64.8031 21.2887 64.711L23.4635 57.0002C23.5097 56.8391 23.4173 56.724 23.2557 56.724H22.4858C22.3934 56.724 22.3011 56.8046 22.278 56.8851L20.9076 62.1523H20.8614L18.9638 56.7355C18.9407 56.6665 18.8598 56.6089 18.7674 56.6089H18.5596C18.4672 56.6089 18.3864 56.6665 18.3633 56.7355L16.4848 62.1523H16.4386L15.0491 56.8851C15.026 56.8046 14.9336 56.724 14.8412 56.724H14.0714C13.9097 56.724 13.8173 56.8391 13.8635 57.0002L16.0383 64.711ZM6.93483 64.5384C6.93483 64.6535 7.02721 64.7571 7.15424 64.7571H11.7579C11.885 64.7571 11.9774 64.6535 11.9774 64.5384V63.9054C11.9774 63.7903 11.885 63.6868 11.7579 63.6868H8.1204V61.2201H11.196C11.3114 61.2201 11.4154 61.128 11.4154 61.0014V60.3608C11.4154 60.2457 11.3114 60.1421 11.196 60.1421H8.1204V57.802H11.7579C11.885 57.802 11.9774 57.6984 11.9774 57.5833V56.9427C11.9774 56.8276 11.885 56.724 11.7579 56.724H7.15039C7.02337 56.724 6.93098 56.8276 6.93098 56.9427V64.5384H6.93483ZM0.0369689 65.1637C0.233281 65.4054 0.783724 66 1.78838 66C3.13562 66 4.14797 65.0832 4.14797 63.4873V56.8429C4.14797 56.7278 4.05559 56.6243 3.92856 56.6243H3.16641C3.03939 56.6243 2.94701 56.7278 2.94701 56.8429V63.4988C2.94701 64.5077 2.34652 64.9451 1.78453 64.9451C1.33417 64.9451 1.01468 64.6458 0.841463 64.4502C0.737533 64.3351 0.633603 64.2891 0.471935 64.4272L0.0600644 64.876C-0.00922215 64.9566 -0.0207699 65.0716 0.0369689 65.1637Z" fill="#EFEBE7"/>
<path d="M30.208 24.2976C30.208 28.681 33.7614 32.237 38.1473 32.237C42.5307 32.237 46.0867 28.6836 46.0867 24.2976V2H30.208" stroke="#EFEBE7" stroke-width="3.08961" stroke-miterlimit="10" stroke-linecap="round" stroke-linejoin="round"/>
<path d="M54.0232 32.1326C54.0232 36.516 50.4698 40.0719 46.0839 40.0719C41.7005 40.0719 38.1445 36.5185 38.1445 32.1326V9.83496H54.0232" stroke="#EFEBE7" stroke-width="3.08961" stroke-miterlimit="10" stroke-linecap="round" stroke-linejoin="round"/>
</svg>
