<svg width="231" height="60" viewBox="0 0 231 60" fill="none" xmlns="http://www.w3.org/2000/svg">
<rect y="3" width="230.953" height="54" rx="27" fill="#F4F4F4"/>
<path d="M41.8956 26.1706C40.5517 22.3651 36.5906 19.8045 32.1626 20.6816C28.9229 21.3324 26.2916 23.9213 25.6125 27.1609C24.4525 32.6358 28.6117 37.4881 33.9026 37.4881C37.595 37.4881 40.7356 35.1256 41.8956 31.8294H48.0496V34.6588C48.0496 36.2149 49.3228 37.4881 50.8789 37.4881C52.4351 37.4881 53.7083 36.2149 53.7083 34.6588V31.8294C55.2645 31.8294 56.5377 30.5562 56.5377 29C56.5377 27.4438 55.2645 26.1706 53.7083 26.1706H41.8956ZM33.9026 31.8294C32.3465 31.8294 31.0733 30.5562 31.0733 29C31.0733 27.4438 32.3465 26.1706 33.9026 26.1706C35.4588 26.1706 36.732 27.4438 36.732 29C36.732 30.5562 35.4588 31.8294 33.9026 31.8294Z" fill="#858585"/>
<path d="M79.4256 34.6393C78.5088 34.6393 77.6658 34.4175 76.8969 33.9738C76.1575 33.5006 75.5512 32.8943 75.078 32.1549C74.6343 31.3859 74.4125 30.543 74.4125 29.6262C74.4125 28.7093 74.6343 27.8812 75.078 27.1418C75.5512 26.3728 76.1575 25.7665 76.8969 25.3229C77.6658 24.8497 78.5088 24.6131 79.4256 24.6131C80.3425 24.6131 81.1706 24.8497 81.91 25.3229C82.6494 25.7665 83.2409 26.3728 83.6845 27.1418C84.1577 27.8812 84.3943 28.7093 84.3943 29.6262C84.3943 30.543 84.1577 31.3859 83.6845 32.1549C83.2409 32.8943 82.6494 33.5006 81.91 33.9738C81.1706 34.4175 80.3425 34.6393 79.4256 34.6393ZM96.3219 34.6393C95.4051 34.6393 94.5622 34.4175 93.7932 33.9738C93.0538 33.5006 92.4475 32.8943 91.9743 32.1549C91.5306 31.3859 91.3088 30.543 91.3088 29.6262C91.3088 28.7093 91.5306 27.8812 91.9743 27.1418C92.4475 26.3728 93.0538 25.7665 93.7932 25.3229C94.5622 24.8497 95.4051 24.6131 96.3219 24.6131C97.2388 24.6131 98.0669 24.8497 98.8063 25.3229C99.5457 25.7665 100.137 26.3728 100.581 27.1418C101.054 27.8812 101.291 28.7093 101.291 29.6262C101.291 30.543 101.054 31.3859 100.581 32.1549C100.137 32.8943 99.5457 33.5006 98.8063 33.9738C98.0669 34.4175 97.2388 34.6393 96.3219 34.6393ZM113.218 34.6393C112.301 34.6393 111.458 34.4175 110.689 33.9738C109.95 33.5006 109.344 32.8943 108.871 32.1549C108.427 31.3859 108.205 30.543 108.205 29.6262C108.205 28.7093 108.427 27.8812 108.871 27.1418C109.344 26.3728 109.95 25.7665 110.689 25.3229C111.458 24.8497 112.301 24.6131 113.218 24.6131C114.135 24.6131 114.963 24.8497 115.703 25.3229C116.442 25.7665 117.033 26.3728 117.477 27.1418C117.95 27.8812 118.187 28.7093 118.187 29.6262C118.187 30.543 117.95 31.3859 117.477 32.1549C117.033 32.8943 116.442 33.5006 115.703 33.9738C114.963 34.4175 114.135 34.6393 113.218 34.6393ZM130.115 34.6393C129.198 34.6393 128.355 34.4175 127.586 33.9738C126.846 33.5006 126.24 32.8943 125.767 32.1549C125.323 31.3859 125.101 30.543 125.101 29.6262C125.101 28.7093 125.323 27.8812 125.767 27.1418C126.24 26.3728 126.846 25.7665 127.586 25.3229C128.355 24.8497 129.198 24.6131 130.115 24.6131C131.031 24.6131 131.859 24.8497 132.599 25.3229C133.338 25.7665 133.93 26.3728 134.373 27.1418C134.847 27.8812 135.083 28.7093 135.083 29.6262C135.083 30.543 134.847 31.3859 134.373 32.1549C133.93 32.8943 133.338 33.5006 132.599 33.9738C131.859 34.4175 131.031 34.6393 130.115 34.6393ZM147.011 34.6393C146.094 34.6393 145.251 34.4175 144.482 33.9738C143.743 33.5006 143.136 32.8943 142.663 32.1549C142.22 31.3859 141.998 30.543 141.998 29.6262C141.998 28.7093 142.22 27.8812 142.663 27.1418C143.136 26.3728 143.743 25.7665 144.482 25.3229C145.251 24.8497 146.094 24.6131 147.011 24.6131C147.928 24.6131 148.756 24.8497 149.495 25.3229C150.235 25.7665 150.826 26.3728 151.27 27.1418C151.743 27.8812 151.98 28.7093 151.98 29.6262C151.98 30.543 151.743 31.3859 151.27 32.1549C150.826 32.8943 150.235 33.5006 149.495 33.9738C148.756 34.4175 147.928 34.6393 147.011 34.6393ZM163.907 34.6393C162.99 34.6393 162.147 34.4175 161.378 33.9738C160.639 33.5006 160.033 32.8943 159.56 32.1549C159.116 31.3859 158.894 30.543 158.894 29.6262C158.894 28.7093 159.116 27.8812 159.56 27.1418C160.033 26.3728 160.639 25.7665 161.378 25.3229C162.147 24.8497 162.99 24.6131 163.907 24.6131C164.824 24.6131 165.652 24.8497 166.392 25.3229C167.131 25.7665 167.722 26.3728 168.166 27.1418C168.639 27.8812 168.876 28.7093 168.876 29.6262C168.876 30.543 168.639 31.3859 168.166 32.1549C167.722 32.8943 167.131 33.5006 166.392 33.9738C165.652 34.4175 164.824 34.6393 163.907 34.6393ZM180.803 34.6393C179.887 34.6393 179.044 34.4175 178.275 33.9738C177.535 33.5006 176.929 32.8943 176.456 32.1549C176.012 31.3859 175.79 30.543 175.79 29.6262C175.79 28.7093 176.012 27.8812 176.456 27.1418C176.929 26.3728 177.535 25.7665 178.275 25.3229C179.044 24.8497 179.887 24.6131 180.803 24.6131C181.72 24.6131 182.548 24.8497 183.288 25.3229C184.027 25.7665 184.619 26.3728 185.062 27.1418C185.536 27.8812 185.772 28.7093 185.772 29.6262C185.772 30.543 185.536 31.3859 185.062 32.1549C184.619 32.8943 184.027 33.5006 183.288 33.9738C182.548 34.4175 181.72 34.6393 180.803 34.6393ZM197.7 34.6393C196.783 34.6393 195.94 34.4175 195.171 33.9738C194.432 33.5006 193.825 32.8943 193.352 32.1549C192.908 31.3859 192.687 30.543 192.687 29.6262C192.687 28.7093 192.908 27.8812 193.352 27.1418C193.825 26.3728 194.432 25.7665 195.171 25.3229C195.94 24.8497 196.783 24.6131 197.7 24.6131C198.617 24.6131 199.445 24.8497 200.184 25.3229C200.924 25.7665 201.515 26.3728 201.959 27.1418C202.432 27.8812 202.668 28.7093 202.668 29.6262C202.668 30.543 202.432 31.3859 201.959 32.1549C201.515 32.8943 200.924 33.5006 200.184 33.9738C199.445 34.4175 198.617 34.6393 197.7 34.6393Z" fill="#858585"/>
</svg>