<svg width="60" height="60" viewBox="0 0 60 60" fill="none" xmlns="http://www.w3.org/2000/svg">
<rect width="60" height="60" rx="30" fill="#E6F4EA"/>
<path d="M21.515 39.015C21.515 40.4816 22.715 41.6816 24.1816 41.6816H34.8483C36.315 41.6816 37.515 40.4816 37.515 39.015V25.6816C37.515 24.215 36.315 23.015 34.8483 23.015H24.1816C22.715 23.015 21.515 24.215 21.515 25.6816V39.015ZM37.515 19.015H34.1816L33.235 18.0683C32.995 17.8283 32.6483 17.6816 32.3016 17.6816H26.7283C26.3816 17.6816 26.035 17.8283 25.795 18.0683L24.8483 19.015H21.515C20.7816 19.015 20.1816 19.615 20.1816 20.3483C20.1816 21.0816 20.7816 21.6816 21.515 21.6816H37.515C38.2483 21.6816 38.8483 21.0816 38.8483 20.3483C38.8483 19.615 38.2483 19.015 37.515 19.015Z" fill="#188038"/>
</svg>
