<svg width="60" height="62" viewBox="0 0 60 62" fill="none" xmlns="http://www.w3.org/2000/svg">
<path d="M8.12109 25.8751C8.16234 27.9151 8.31984 29.9514 8.59359 31.9739C9.88984 40.7239 14.8023 50.6351 28.2648 57.5801C28.8002 57.8561 29.3938 58 29.9961 58C30.5984 58 31.192 57.8561 31.7273 57.5801C45.1911 50.6339 50.1023 40.7226 51.3986 31.9726C51.6724 29.9507 51.8298 27.9151 51.8711 25.8751V13.7914C51.8711 12.8666 51.5863 11.9643 51.0553 11.2072C50.5244 10.4502 49.773 9.87504 48.9036 9.56011L31.5286 3.26887C30.5384 2.91022 29.4538 2.91022 28.4636 3.26887L11.0886 9.56011C10.2191 9.87504 9.46782 10.4502 8.93685 11.2072C8.40588 11.9643 8.12104 12.8666 8.12109 13.7914V25.8751Z" fill="#858585"/>
<path d="M30 58C30.601 57.9994 31.1932 57.8555 31.7273 57.5801C45.1911 50.6339 50.1023 40.7226 51.3986 31.9726C51.6724 29.9507 51.8298 27.9151 51.8711 25.8751V13.7914C51.8711 12.8666 51.5863 11.9643 51.0553 11.2072C50.5244 10.4502 49.773 9.87504 48.9036 9.56011L31.5286 3.26886C31.0347 3.08999 30.5174 3.00033 30 2.99988V58Z" fill="#A4A4A4"/>
<path d="M29.9656 30.3255H37.1281C36.6156 33.3143 34.0319 35.5055 30.2331 35.5055C26.0581 35.5055 22.6744 31.9768 22.6744 27.803C22.6744 23.6293 26.0594 20.1005 30.2344 20.1005C32.1094 20.1005 33.7969 20.7468 35.1256 22.0118L38.7631 18.373C36.5544 16.3168 33.6731 15.053 30.2344 15.053C26.8529 15.053 23.6099 16.3963 21.2188 18.7874C18.8277 21.1785 17.4844 24.4215 17.4844 27.803C17.4844 31.1845 18.8277 34.4275 21.2188 36.8186C23.6099 39.2097 26.8529 40.553 30.2344 40.553C37.5981 40.553 42.4469 35.3768 42.4469 28.093C42.4481 27.1944 42.3687 26.2974 42.2094 25.413H29.9656V30.3255Z" fill="#BFC1C2"/>
<path fill-rule="evenodd" clip-rule="evenodd" d="M30 40.5508C30.0781 40.5523 30.1562 40.553 30.2344 40.553C37.5981 40.553 42.4469 35.3768 42.4469 28.093C42.4481 27.1944 42.3687 26.2974 42.2094 25.413H30V30.3255H37.1281C36.6156 33.3143 34.0319 35.5055 30.2331 35.5055C30.1551 35.5055 30.0774 35.5042 30 35.5018V40.5508ZM30 20.1042C30.0778 20.1017 30.156 20.1005 30.2344 20.1005C32.1094 20.1005 33.7969 20.7468 35.1256 22.0118L38.7631 18.373C36.5544 16.3168 33.6731 15.053 30.2344 15.053C30.1562 15.053 30.0781 15.0537 30 15.0551V20.1042Z" fill="#CFD0D1"/>
</svg>
