<svg width="60" height="60" viewBox="0 0 60 60" fill="none" xmlns="http://www.w3.org/2000/svg">
    <rect width="60" height="60" rx="30" fill="#FCE8E6"/>
    <path d="M19.7746 41.5786H40.6533C42.7883 41.5786 44.1192 39.2634 43.0517 37.4195L32.6124 19.3829C31.5449 17.539 28.883 17.539 27.8155 19.3829L17.3762 37.4195C16.3087 39.2634 17.6396 41.5786 19.7746 41.5786ZM30.2139 31.874C29.4514 31.874 28.8276 31.2502 28.8276 30.4877V27.7149C28.8276 26.9524 29.4514 26.3286 30.2139 26.3286C30.9764 26.3286 31.6003 26.9524 31.6003 27.7149V30.4877C31.6003 31.2502 30.9764 31.874 30.2139 31.874ZM31.6003 37.4195H28.8276V34.6468H31.6003V37.4195Z" fill="#D93025"/>
</svg>
