<svg xmlns="http://www.w3.org/2000/svg" width="61" height="58" fill="none" stroke="#d59c5e" stroke-width="1.5" stroke-miterlimit="10" stroke-linejoin="round" xmlns:v="https://vecta.io/nano"><path d="M1 47.211l3.085-4.412h7.982l3.149 4.412L8.108 56.5 1 47.211z"/><g stroke-linecap="round"><path d="M1 47.211h14.216m-3.148-4.412l-1.737 4.412L8.109 56.5"/><path d="M4.148 42.799l1.737 4.412L8.107 56.5m-2.22-9.289l2.221-4.412 2.221 4.412"/></g><path d="M26.831 47.211H15.217V35.607a9.46 9.46 0 0 1 2.67-6.6L41.595 4.733c4.211-4.311 11.037-4.311 15.248 0s4.21 11.3 0 15.611l-23.57 24.137c-1.708 1.749-4.028 2.729-6.442 2.729z"/><path d="M39.645 6.734l14.828 16.041" stroke-linecap="round"/></svg>