<svg xmlns="http://www.w3.org/2000/svg" width="62" height="62" fill="none" stroke="#d59c5e" stroke-width="1.5" stroke-miterlimit="10" stroke-linejoin="round" xmlns:v="https://vecta.io/nano"><path d="M34.32 11.675l3.406-4.673h8.79l3.473 4.673-7.831 9.834-7.837-9.834z"/><g stroke-linecap="round"><path d="M34.32 11.675h15.668m-3.471-4.674l-1.912 4.673-2.447 9.834"/><path d="M37.799 7.001l1.912 4.673 2.447 9.834"/><path d="M39.711 11.675l2.447-4.673 2.447 4.673"/></g><path d="M51.967 9.338C50.83 4.835 46.694 1.5 41.766 1.5c-5.803 0-10.513 4.629-10.513 10.344 0 .45.034.889.089 1.322-3.043 0-5.507 2.424-5.507 5.419v.324c0 2.995 2.464 5.419 5.507 5.419h21.543c4.208 0 7.614-3.357 7.614-7.492 0-4.141-3.411-7.492-7.614-7.492h-.92v-.005z"/><path d="M33.16 5.904h-7.324c-10.774 0-16.588 6.373-18.717 14.37L1.5 36.46l5.624.044v8.556c0 2.622 2.157 4.744 4.821 4.744h13.89V60.5h16.733V49.805h1.087c4.883 0 8.84-3.894 8.84-8.699V24.322" stroke-linecap="round"/></svg>