<svg xmlns="http://www.w3.org/2000/svg" width="61" height="44" fill="none" stroke="#d59c5e" stroke-width="1.5" stroke-miterlimit="10" stroke-linejoin="round" xmlns:v="https://vecta.io/nano"><path d="M24.203 20.701l2.735-3.786h7.067l2.788 3.786-6.293 7.974-6.297-7.974z"/><g stroke-linecap="round"><path d="M24.203 20.701h12.59m-2.788-3.785l-1.54 3.786-1.965 7.974"/><path d="M26.996 16.916l1.54 3.786 1.965 7.974"/><path d="M28.535 20.701l1.965-3.786 1.965 3.786"/></g><path d="M41.334 32.75a15.12 15.12 0 0 0 0-21.5c-5.983-5.937-15.683-5.937-21.667 0a15.12 15.12 0 0 0 0 21.5c5.983 5.937 15.684 5.937 21.667 0z"/><path d="M60 22.001S46.794 37.204 30.5 37.204 1 22.001 1 22.001 14.206 6.798 30.5 6.798 60 22.001 60 22.001z"/></svg>